<svg xmlns="http://www.w3.org/2000/svg" viewBox="0 0 58.5 18.5"><g id="Layer_2" data-name="Layer 2"><g id="Layer_1-2" data-name="Layer 1"><path d="M6,10.43v3H4.2V4.9H7.52a3.89,3.89,0,0,1,1.69.35,2.69,2.69,0,0,1,1.13,1,2.85,2.85,0,0,1,.39,1.48,2.45,2.45,0,0,1-.86,2,3.53,3.53,0,0,1-2.38.73ZM6,9H7.52a1.56,1.56,0,0,0,1.07-.32A1.21,1.21,0,0,0,9,7.74a1.37,1.37,0,0,0-.37-1,1.32,1.32,0,0,0-1-.4H6Z"/><path d="M15.71,11.68H12.63L12,13.43H10.17L13.35,4.9H15l3.19,8.53H16.3ZM13.1,10.25h2.13L14.16,7.06Z"/><path d="M24.69,6.33H22.07v7.1H20.31V6.33H17.74V4.9h7Z"/><path d="M32.39,10.59a3,3,0,0,1-1,2.17,3.56,3.56,0,0,1-2.42.79,3.23,3.23,0,0,1-2.58-1.1,4.53,4.53,0,0,1-.94-3V8.89a5,5,0,0,1,.43-2.16A3.26,3.26,0,0,1,27.1,5.29a3.88,3.88,0,0,1,4.25.29,3.21,3.21,0,0,1,1,2.22H30.64a1.8,1.8,0,0,0-.46-1.2A1.69,1.69,0,0,0,29,6.23a1.5,1.5,0,0,0-1.32.63,3.55,3.55,0,0,0-.45,2v.65a3.78,3.78,0,0,0,.42,2,1.48,1.48,0,0,0,1.32.64,1.75,1.75,0,0,0,1.22-.38,1.65,1.65,0,0,0,.46-1.15Z"/><path d="M40.48,13.43H38.73V9.78H35.3v3.65H33.54V4.9H35.3V8.36h3.43V4.9h1.75Z"/><path d="M47.15,9.74H43.78V12h4v1.41H42V4.9h5.71V6.33H43.78v2h3.37Z"/><path d="M53.19,11.2a.92.92,0,0,0-.35-.77,4.61,4.61,0,0,0-1.27-.56,9.44,9.44,0,0,1-1.44-.58,2.38,2.38,0,0,1-1.46-2.12,2,2,0,0,1,.39-1.23,2.57,2.57,0,0,1,1.12-.85,4.32,4.32,0,0,1,1.64-.3,3.86,3.86,0,0,1,1.63.33,2.55,2.55,0,0,1,1.11.93A2.47,2.47,0,0,1,55,7.42H53.2a1.17,1.17,0,0,0-.37-.91,1.51,1.51,0,0,0-1-.32,1.63,1.63,0,0,0-1,.27.86.86,0,0,0-.36.72.81.81,0,0,0,.42.69,4.54,4.54,0,0,0,1.23.53,5.3,5.3,0,0,1,2.19,1.12A2.23,2.23,0,0,1,55,11.18a2.05,2.05,0,0,1-.84,1.74,3.67,3.67,0,0,1-2.26.63,4.37,4.37,0,0,1-1.79-.36,2.79,2.79,0,0,1-1.23-1,2.46,2.46,0,0,1-.43-1.45h1.76c0,.94.57,1.41,1.69,1.41a1.63,1.63,0,0,0,1-.25A.84.84,0,0,0,53.19,11.2Z"/><path d="M58.5,18.5H0V0H58.5ZM1.5,17H57V1.5H1.5Z"/></g></g></svg>